<svg width="180" height="59" viewBox="0 0 180 59" fill="none" xmlns="http://www.w3.org/2000/svg">
<g clip-path="url(#clip0_447_899)">
<path d="M23.2709 37.661C20.7203 40.1841 16.4006 40.174 15.1942 36.8113C14.958 36.153 14.7692 35.476 14.6303 34.7853C14.0631 31.965 14.3542 29.0417 15.4666 26.385C16.5791 23.7284 18.4629 21.4577 20.8799 19.8602C23.2969 18.2626 26.1385 17.4099 29.0454 17.4099C31.9523 17.4099 34.7939 18.2626 37.2109 19.8602C39.6279 21.4577 41.5117 23.7284 42.6241 26.3851C43.7366 29.0417 44.0276 31.965 43.4605 34.7853C43.3216 35.476 43.1328 36.153 42.8965 36.8113C41.6901 40.174 37.3704 40.1841 34.8198 37.661L30.8826 33.7662C30.5064 33.3941 30.5453 32.7805 30.6491 32.2644C30.7121 31.9507 30.6797 31.6255 30.556 31.3299C30.4322 31.0344 30.2227 30.7817 29.9538 30.604C29.6849 30.4264 29.3688 30.3315 29.0454 30.3315C28.722 30.3315 28.4059 30.4264 28.137 30.604C27.8681 30.7817 27.6585 31.0344 27.5348 31.3299C27.411 31.6255 27.3786 31.9507 27.4418 32.2644C27.5455 32.7805 27.5843 33.3941 27.2082 33.7662L23.2709 37.661Z" fill="url(#paint0_linear_447_899)"/>
</g>
<defs>
<linearGradient id="paint0_linear_447_899" x1="42.4051" y1="24.6794" x2="16.3169" y2="24.6794" gradientUnits="userSpaceOnUse">
<stop stop-color="#161490"/>
<stop offset="0.510417" stop-color="#7476ED"/>
<stop offset="1" stop-color="#E56F8C"/>
</linearGradient>
<clipPath id="clip0_447_899">
<rect width="132.391" height="24.5027" fill="white" transform="translate(14.3478 17.4099)"/>
</clipPath>
</defs>
</svg>
