<svg width="45" height="46" viewBox="0 0 45 46" fill="none" xmlns="http://www.w3.org/2000/svg">
<circle cx="22.5" cy="22.8354" r="21.5" stroke="#57007B" stroke-width="2"/>
<path d="M29.0625 21.8981H17.9438L21.3469 17.8106C21.506 17.6192 21.5826 17.3724 21.5597 17.1245C21.5369 16.8766 21.4165 16.6479 21.225 16.4888C21.0335 16.3296 20.7867 16.2531 20.5388 16.2759C20.2909 16.2988 20.0623 16.4192 19.9031 16.6106L15.2156 22.2356C15.1841 22.2804 15.1559 22.3274 15.1312 22.3763C15.1312 22.4231 15.1313 22.4513 15.0656 22.4981C15.0231 22.6056 15.0009 22.7201 15 22.8356C15.0009 22.9512 15.0231 23.0657 15.0656 23.1731C15.0656 23.22 15.0656 23.2481 15.1312 23.295C15.1559 23.3439 15.1841 23.3909 15.2156 23.4356L19.9031 29.0606C19.9913 29.1665 20.1017 29.2516 20.2264 29.3099C20.3512 29.3682 20.4873 29.3984 20.625 29.3981C20.844 29.3986 21.0563 29.3223 21.225 29.1825C21.3199 29.1038 21.3984 29.0072 21.4559 28.8981C21.5134 28.789 21.5489 28.6697 21.5602 28.5469C21.5715 28.4241 21.5585 28.3003 21.5219 28.1825C21.4853 28.0648 21.4258 27.9554 21.3469 27.8606L17.9438 23.7731H29.0625C29.3111 23.7731 29.5496 23.6744 29.7254 23.4986C29.9012 23.3227 30 23.0843 30 22.8356C30 22.587 29.9012 22.3485 29.7254 22.1727C29.5496 21.9969 29.3111 21.8981 29.0625 21.8981Z" fill="#57007B"/>
</svg>
