<svg width="133" height="134" viewBox="0 0 133 134" fill="none" xmlns="http://www.w3.org/2000/svg">
<g filter="url(#filter0_d_1_442)">
<circle cx="66.5" cy="52.8354" r="22.5" fill="#FAFAFA"/>
<circle cx="66.5" cy="52.8354" r="21.5" stroke="#57007B" stroke-width="2"/>
</g>
<path d="M59.9375 51.8981H71.0562L67.6531 47.8106C67.494 47.6192 67.4174 47.3724 67.4403 47.1245C67.4631 46.8766 67.5835 46.6479 67.775 46.4888C67.9665 46.3296 68.2133 46.2531 68.4612 46.2759C68.7091 46.2988 68.9377 46.4192 69.0969 46.6106L73.7844 52.2356C73.8159 52.2804 73.8441 52.3274 73.8688 52.3763C73.8688 52.4231 73.8687 52.4513 73.9344 52.4981C73.9769 52.6056 73.9991 52.7201 74 52.8356C73.9991 52.9512 73.9769 53.0657 73.9344 53.1731C73.9344 53.22 73.9344 53.2481 73.8688 53.295C73.8441 53.3439 73.8159 53.3909 73.7844 53.4356L69.0969 59.0606C69.0087 59.1665 68.8983 59.2516 68.7736 59.3099C68.6488 59.3682 68.5127 59.3984 68.375 59.3981C68.156 59.3986 67.9437 59.3223 67.775 59.1825C67.6801 59.1038 67.6016 59.0072 67.5441 58.8981C67.4866 58.789 67.4511 58.6697 67.4398 58.5469C67.4285 58.4241 67.4415 58.3003 67.4781 58.1825C67.5147 58.0648 67.5742 57.9554 67.6531 57.8606L71.0562 53.7731H59.9375C59.6889 53.7731 59.4504 53.6744 59.2746 53.4986C59.0988 53.3227 59 53.0843 59 52.8356C59 52.587 59.0988 52.3485 59.2746 52.1727C59.4504 51.9969 59.6889 51.8981 59.9375 51.8981Z" fill="#57007B"/>
<defs>
<filter id="filter0_d_1_442" x="0" y="0.335449" width="133" height="133" filterUnits="userSpaceOnUse" color-interpolation-filters="sRGB">
<feFlood flood-opacity="0" result="BackgroundImageFix"/>
<feColorMatrix in="SourceAlpha" type="matrix" values="0 0 0 0 0 0 0 0 0 0 0 0 0 0 0 0 0 0 127 0" result="hardAlpha"/>
<feOffset dy="14"/>
<feGaussianBlur stdDeviation="22"/>
<feColorMatrix type="matrix" values="0 0 0 0 0.0561111 0 0 0 0 0.0777333 0 0 0 0 0.133333 0 0 0 0.08 0"/>
<feBlend mode="normal" in2="BackgroundImageFix" result="effect1_dropShadow_1_442"/>
<feBlend mode="normal" in="SourceGraphic" in2="effect1_dropShadow_1_442" result="shape"/>
</filter>
</defs>
</svg>
