<svg width="167" height="94" viewBox="0 0 167 94" fill="none" xmlns="http://www.w3.org/2000/svg">
<path fill-rule="evenodd" clip-rule="evenodd" d="M62.117 49.4614C61.127 48.9914 62.117 47.7853 62.587 47.4183C63.577 46.6853 64.883 46.4234 66.083 46.5184L65.979 48.6663C65.927 49.7663 65.666 49.2964 64.883 49.8714C64.048 50.4474 62.223 51.2853 62.118 49.4513L62.117 49.4614ZM99.11 72.2994C100.52 73.1994 103.127 75.8613 100.988 77.1693C98.953 79.0553 97.805 75.0744 95.978 74.5494C96.761 73.5014 97.752 72.5063 99.108 72.2973L99.11 72.2994ZM73.65 75.3373C71.98 75.5993 71.04 77.1173 69.633 77.9043C68.329 78.6903 67.807 77.6423 67.703 77.4343C67.493 77.3293 67.493 77.5394 67.181 77.2344C65.981 75.2964 68.433 73.8824 69.738 72.9394C71.564 72.5194 72.712 74.0913 73.651 75.3393L73.65 75.3373ZM106.99 49.1994C106.886 51.0324 105.06 50.1943 104.225 49.6193C103.442 49.0433 103.182 49.5144 103.129 48.4144L103.025 46.2663C104.225 46.1613 105.529 46.4233 106.521 47.1663C107.043 47.5863 107.981 48.7363 106.991 49.2093L106.99 49.1994Z" fill="#F6D2A2"/>
<path d="M63.11 50.7702C62.745 50.7702 62.067 50.6132 61.962 49.5652C61.649 49.3652 61.545 49.0952 61.545 48.9352C61.493 48.3052 62.171 47.5732 62.535 47.3112C63.37 46.6812 64.465 46.3682 65.613 46.3682H66.291V46.5252C66.343 47.1012 66.291 47.6772 66.239 48.2012C66.239 48.3582 66.239 48.5152 66.187 48.6712C66.135 49.4572 65.977 49.5712 65.613 49.7192C65.456 49.7712 65.3 49.8242 65.039 50.0332C64.779 50.1902 63.891 50.7662 63.109 50.7662L63.11 50.7702ZM65.614 46.6842C64.518 46.6842 63.527 46.9982 62.744 47.5842C62.379 47.8462 61.857 48.4842 61.909 48.8842C61.909 49.0412 62.013 49.1982 62.222 49.3042L62.326 49.3562V49.4612C62.378 50.2992 62.796 50.4042 63.109 50.4042C63.631 50.4042 64.361 50.0372 64.831 49.7242C65.144 49.5242 65.353 49.4622 65.509 49.4102C65.769 49.3052 65.822 49.3052 65.874 48.6772C65.874 48.5202 65.874 48.3632 65.926 48.2072C65.978 47.7372 65.978 47.2122 65.978 46.7402C65.821 46.6882 65.718 46.6882 65.613 46.6882L65.614 46.6842Z" fill="black"/>
<path fill-rule="evenodd" clip-rule="evenodd" d="M62.117 49.462C62.377 49.357 62.691 49.305 62.847 49.042L62.117 49.462Z" fill="#C6B198"/>
<path d="M62.117 49.62C62.065 49.62 61.96 49.568 61.96 49.515C61.908 49.41 61.96 49.315 62.064 49.315C62.116 49.315 62.168 49.263 62.168 49.263C62.378 49.158 62.585 49.106 62.69 48.949C62.742 48.897 62.847 48.844 62.95 48.897C63.002 48.949 63.054 49.054 63.002 49.159C62.8298 49.3712 62.5908 49.5189 62.324 49.578L62.22 49.63H62.116L62.117 49.62Z" fill="black"/>
<path fill-rule="evenodd" clip-rule="evenodd" d="M66.396 27.305C59.3 25.305 64.57 16.253 70.256 19.972L66.396 27.305Z" fill="#6AD7E5"/>
<path d="M66.5 27.5138L66.343 27.4618C62.691 26.4138 62.743 23.7948 62.847 23.0098C63.107 21.0098 64.987 18.9238 67.49 18.9238C68.48 18.9238 69.42 19.2378 70.36 19.8668L70.517 19.9718L66.5 27.5138ZM67.49 19.2898C65.142 19.2898 63.42 21.2278 63.16 23.0598C62.9 24.9458 64.047 26.4118 66.29 27.0928L69.994 20.0228C69.211 19.5528 68.377 19.2898 67.49 19.2898Z" fill="black"/>
<path fill-rule="evenodd" clip-rule="evenodd" d="M97.857 19.3C103.44 15.37 108.553 24.276 102.031 26.53L97.857 19.3Z" fill="#6AD7E5"/>
<path d="M101.978 26.7301L97.648 19.2301L97.805 19.1251C98.805 18.4451 99.788 18.0771 100.779 18.0771C103.179 18.0771 104.901 20.0771 105.266 22.0071C105.423 22.7931 105.579 25.4641 102.136 26.6071L101.979 26.7121L101.978 26.7301ZM98.118 19.3971L102.135 26.3641C104.17 25.6311 105.213 24.0591 104.9 22.1641C104.587 20.3841 102.97 18.5501 100.778 18.5501C99.891 18.4981 99.004 18.7501 98.118 19.3881V19.3971ZM99.9 77.8521C99.065 77.8521 98.335 77.0141 97.7 76.2281C97.126 75.5981 96.552 74.9282 95.926 74.7081L95.666 74.6561L95.823 74.4562C96.449 73.5561 97.493 72.4132 99.058 72.1511H99.11L99.162 72.2032C100.049 72.7792 101.979 74.4031 101.927 75.9231C101.927 76.4991 101.614 76.9711 101.04 77.3371C100.675 77.7041 100.31 77.8611 99.892 77.8611L99.9 77.8521ZM96.248 74.4471C96.874 74.7091 97.396 75.3902 97.918 75.9672C98.544 76.7532 99.17 77.4341 99.848 77.4341C100.161 77.4341 100.474 77.2771 100.788 76.9641H100.84C101.31 76.6501 101.57 76.2841 101.57 75.8121C101.57 74.6071 100.057 73.0881 99.013 72.4071C98.073 72.6691 97.135 73.3071 96.248 74.4501V74.4471ZM100.996 77.3272C100.944 77.3272 100.892 77.2752 100.839 77.2221C100.727 77.0058 100.64 76.7778 100.579 76.5421C100.422 76.1222 100.266 75.7041 99.953 75.3901C99.901 75.3382 99.901 75.2331 99.953 75.1281C100.005 75.0761 100.11 75.0761 100.213 75.1281C100.578 75.4951 100.787 75.9661 100.943 76.4282L101.203 77.0581C101.255 77.1631 101.203 77.2581 101.151 77.3201H100.994L100.996 77.3272Z" fill="black"/>
<path d="M68.743 78.3239C68.065 78.3239 67.7 77.7479 67.595 77.5379H67.543C67.386 77.5379 67.283 77.4859 67.073 77.2759V77.2239C65.925 75.3909 67.908 73.9759 69.213 73.0239L69.683 72.7099H69.787C69.987 72.6579 70.152 72.6579 70.361 72.6579C71.926 72.6579 72.918 74.0199 73.761 75.1199L74.021 75.4869L73.708 75.5389C72.708 75.6959 71.986 76.3249 71.256 76.9529C70.786 77.3729 70.316 77.7389 69.796 78.0529C69.379 78.2099 69.066 78.3149 68.753 78.3149L68.743 78.3239ZM67.595 77.2239C67.647 77.2239 67.699 77.2239 67.795 77.2759H67.847L67.899 77.3279C68.003 77.4849 68.264 77.9579 68.786 77.9579C69.046 77.9579 69.308 77.8529 69.569 77.6959C70.091 77.4339 70.569 77.0159 70.969 76.6479C71.647 76.0719 72.369 75.4429 73.317 75.1809C72.534 74.1329 71.595 72.9809 70.291 72.9809C70.134 72.9809 69.978 72.9809 69.821 73.0329L69.404 73.3469C68.047 74.2899 66.378 75.4949 67.369 77.0669C67.421 77.1719 67.473 77.2239 67.569 77.2239H67.595ZM67.699 77.5909C67.595 77.5909 67.499 77.4859 67.542 77.3909C67.594 76.8669 67.855 76.4909 68.116 76.0909C68.2569 75.893 68.3791 75.6824 68.481 75.4619C68.533 75.3569 68.638 75.3569 68.681 75.3569C68.785 75.4089 68.785 75.5139 68.785 75.5569C68.681 75.8189 68.525 76.0269 68.368 76.2369C68.108 76.6039 67.898 76.9169 67.846 77.3369C67.846 77.5369 67.794 77.5989 67.689 77.5989L67.699 77.5909ZM66.709 24.8429C65.769 24.3729 65.092 23.6909 65.666 22.5909C66.188 21.5959 67.179 21.6909 68.118 22.1709L66.718 24.8409L66.709 24.8429ZM100.569 23.8999C101.509 23.4299 102.186 22.7479 101.612 21.6479C101.09 20.6529 100.099 20.7479 99.16 21.2279L100.56 23.8979L100.569 23.8999ZM106.047 50.4999C105.264 50.4999 104.377 49.9239 104.117 49.7669C103.857 49.6099 103.7 49.5049 103.543 49.4529C103.126 49.2959 103.021 49.1909 102.969 48.4049C102.969 48.2479 102.969 48.0909 102.917 47.9349C102.865 47.4109 102.813 46.8349 102.865 46.2589V46.0989H103.543C104.691 46.0989 105.786 46.4129 106.621 47.0419C106.986 47.3039 107.664 48.0369 107.621 48.6659C107.621 48.8659 107.517 49.1359 107.204 49.2959C107.1 50.3439 106.421 50.5009 106.056 50.5009L106.047 50.4999ZM103.177 46.4669L103.229 47.9339C103.229 48.0909 103.229 48.2479 103.281 48.4039C103.333 49.0339 103.385 49.0339 103.646 49.1369C103.803 49.1889 104.011 49.2939 104.324 49.4509C104.794 49.7649 105.524 50.1309 106.046 50.1309C106.359 50.1309 106.776 50.0259 106.829 49.1879V49.0829L106.933 49.0309C107.133 48.9259 107.246 48.8309 107.246 48.6109C107.298 48.1909 106.776 47.5629 106.411 47.3109C105.628 46.7349 104.585 46.4109 103.541 46.4109C103.437 46.4629 103.341 46.4629 103.176 46.4629L103.177 46.4669Z" fill="black"/>
<path fill-rule="evenodd" clip-rule="evenodd" d="M106.987 49.2003C106.727 49.0953 106.413 49.0433 106.257 48.7803L106.987 49.2003Z" fill="#C6B198"/>
<path d="M106.987 49.4H106.935L106.831 49.348C106.571 49.243 106.309 49.191 106.153 48.928C106.101 48.876 106.101 48.728 106.205 48.666C106.257 48.614 106.415 48.614 106.465 48.718C106.569 48.875 106.778 48.918 106.987 49.032C107.039 49.032 107.091 49.084 107.091 49.084C107.195 49.136 107.248 49.241 107.195 49.284C107.142 49.327 107.038 49.389 106.985 49.389L106.987 49.4Z" fill="black"/>
<path fill-rule="evenodd" clip-rule="evenodd" d="M83.874 15.5694C90.97 15.5694 97.596 16.5644 101.091 23.4264C104.221 31.0744 103.074 39.3504 103.595 47.4694C104.012 54.4364 104.899 62.4494 101.717 68.8934C98.327 75.6504 89.874 77.3794 82.934 77.1174C77.456 76.9174 70.882 75.1174 67.751 70.0974C64.151 64.2304 65.821 55.4834 66.081 48.9354C66.394 41.1834 63.994 33.3784 66.551 25.8354C69.108 17.9354 76.203 16.1354 83.873 15.5684" fill="#6AD7E5"/>
<path d="M84.135 77.3298H82.83C80.69 77.2778 77.456 76.9098 74.273 75.5998C71.195 74.3428 68.951 72.5618 67.49 70.2048C64.568 65.4378 65.09 58.8908 65.56 53.0748L65.82 48.9368C65.924 46.2128 65.716 43.3848 65.455 40.7128C65.038 35.7888 64.62 30.7078 66.238 25.7828C67.49 22.1158 69.734 19.4968 73.125 17.8208C75.785 16.5208 79.073 15.7778 83.768 15.4208C90.758 15.3688 97.698 16.3638 101.194 23.3208C103.49 28.9258 103.49 34.9508 103.542 40.7638C103.542 42.9638 103.542 45.2158 103.699 47.4158C103.751 48.0958 103.803 48.7778 103.803 49.4588C104.22 55.8588 104.69 63.0788 101.768 68.9448C100.308 71.9308 97.751 74.1308 94.255 75.5448C91.438 76.6968 87.89 77.3248 84.133 77.3248L84.135 77.3298ZM83.875 15.7298C76.518 16.3058 69.318 17.9298 66.658 25.8918C65.041 30.7618 65.458 35.7918 65.875 40.6618C66.085 43.3858 66.345 46.1618 66.24 48.9378C66.188 50.2378 66.083 51.6078 65.98 53.0758C65.51 58.8378 64.99 65.3328 67.858 69.9958C69.058 71.9338 72.918 76.5438 82.884 76.9098H84.188C95.718 76.9098 99.998 71.7768 101.562 68.7398C104.432 62.9778 103.962 55.7398 103.597 49.4098C103.545 48.7298 103.493 48.0478 103.493 47.3668C103.389 45.1668 103.336 42.9148 103.336 40.7148C103.284 34.9528 103.284 28.9288 101.04 23.3768C99.475 20.2768 97.127 18.1908 93.892 16.9768C90.552 15.8768 86.796 15.7198 83.875 15.7198V15.7298Z" fill="black"/>
<path fill-rule="evenodd" clip-rule="evenodd" d="M85.126 25.1051C84.709 18.2431 95.196 16.3571 96.761 23.0621C98.483 30.5621 86.378 32.5421 85.126 25.1051ZM70.674 26.3001C69.057 18.3381 81.787 16.8701 82.257 24.6241C82.622 31.1191 72.344 32.7441 70.674 26.3001Z" fill="white"/>
<path d="M90.865 29.9756C88.517 29.9756 85.543 28.7186 84.917 25.1556C84.813 23.4796 85.334 21.9606 86.43 20.8076C87.63 19.5076 89.456 18.7646 91.334 18.7646C93.534 18.7646 96.134 19.9166 96.864 23.1126C97.281 24.8926 96.968 26.4646 95.977 27.7126C94.881 29.0746 92.951 29.9646 90.864 29.9646L90.865 29.9756ZM85.282 25.1056C85.542 26.5726 86.222 27.7256 87.317 28.5626C88.257 29.2956 89.56 29.6626 90.865 29.6626C92.795 29.6626 94.665 28.8246 95.717 27.5146C96.657 26.3626 96.917 24.8446 96.552 23.1666C95.874 20.1806 93.422 19.1336 91.335 19.1336C89.561 19.1336 87.839 19.8666 86.692 21.0716C85.692 22.1196 85.179 23.5336 85.292 25.1046L85.282 25.1056ZM89.822 24.7916C89.822 25.8396 89.039 26.6776 88.1 26.6776C87.161 26.6776 86.378 25.8396 86.378 24.7916C86.378 23.7436 87.161 22.9056 88.1 22.9056C89.039 22.9056 89.822 23.7436 89.822 24.7916ZM76.152 30.6046C73.909 30.6046 71.3 29.5046 70.465 26.3616C70.1 24.5286 70.465 22.8616 71.508 21.5946C72.656 20.1806 74.534 19.3426 76.568 19.3426C79.281 19.3426 82.151 20.9666 82.368 24.6426C82.472 26.1626 82.003 27.5226 80.968 28.6226C79.872 29.8276 78.046 30.6226 76.168 30.6226L76.152 30.6046ZM76.57 19.6996C74.64 19.6996 72.866 20.4856 71.77 21.7946C70.77 22.9996 70.466 24.5186 70.83 26.2466C71.56 29.1796 74.065 30.2266 76.152 30.2266C77.926 30.2266 79.648 29.5466 80.752 28.3406C81.2198 27.8479 81.5778 27.2616 81.8026 26.6204C82.0273 25.9792 82.1137 25.2976 82.056 24.6206C81.952 22.3686 80.439 19.6966 76.578 19.6966L76.57 19.6996ZM75.266 25.2516C75.266 26.2996 74.483 27.1376 73.544 27.1376C72.605 27.1376 71.822 26.2996 71.822 25.2516C71.822 24.2036 72.605 23.3656 73.544 23.3656C74.483 23.3656 75.266 24.2036 75.266 25.2516Z" fill="black"/>
<path fill-rule="evenodd" clip-rule="evenodd" d="M86.587 34.0001C86.587 34.9431 86.797 36.0431 86.639 37.1001C86.379 37.5701 85.909 37.6241 85.491 37.7801C84.917 37.6751 84.448 37.3101 84.187 36.7851C84.03 35.6331 84.239 34.4801 84.291 33.3281L86.587 34.0081V34.0001Z" fill="white"/>
<path d="M85.49 38.0002C84.812 37.8952 84.29 37.4762 84.03 36.9002C83.926 36.0622 83.978 35.2762 84.03 34.5002C84.082 34.1332 84.082 33.7672 84.082 33.4002V33.2002L86.742 34.0382V34.1432C86.742 34.4572 86.794 34.7732 86.794 35.1382C86.846 35.8182 86.898 36.5522 86.794 37.2332V37.2852C86.584 37.7052 86.22 37.8092 85.854 37.9652C85.75 37.9132 85.644 37.9652 85.489 38.0172L85.49 38.0002ZM84.342 36.7432C84.552 37.2132 84.968 37.5292 85.438 37.6432C85.542 37.5912 85.648 37.5912 85.698 37.5382C86.011 37.4332 86.272 37.3382 86.428 37.0682C86.532 36.4382 86.48 35.7682 86.428 35.0682C86.428 34.7542 86.376 34.4382 86.376 34.1682L84.393 33.5382C84.393 33.8522 84.341 34.1682 84.341 34.4382C84.289 35.2762 84.237 36.0082 84.341 36.7432H84.342Z" fill="black"/>
<path fill-rule="evenodd" clip-rule="evenodd" d="M74.7 25.6795C74.7 25.9415 74.5 26.1495 74.283 26.1495C74.066 26.1495 73.866 25.9495 73.866 25.6795C73.866 25.4095 74.066 25.2095 74.283 25.2095C74.543 25.2095 74.7 25.4095 74.7 25.6795ZM89.3 25.1995C89.3 25.4615 89.143 25.6695 88.883 25.6695C88.683 25.6695 88.466 25.4695 88.466 25.1995C88.466 24.9295 88.623 24.7295 88.883 24.7295C89.083 24.7295 89.3 24.9295 89.3 25.1995ZM81.578 33.9045C80.795 35.7375 81.995 39.4565 84.082 36.7345C83.925 35.5825 84.134 34.4295 84.186 33.2775L81.586 33.9075L81.578 33.9045Z" fill="white"/>
<path d="M82.674 37.8857C82.309 37.8857 81.944 37.6857 81.684 37.2557C81.11 36.4177 81.006 34.8557 81.424 33.8507L81.476 33.7457L84.346 33.0127V33.2127L84.294 34.3647C84.242 35.1507 84.19 35.8847 84.294 36.6697V36.7217L84.242 36.7737C83.72 37.5067 83.199 37.8737 82.677 37.8737L82.674 37.8857ZM81.734 34.0617C81.421 34.9617 81.524 36.3667 81.994 37.0477C82.204 37.3617 82.411 37.5177 82.672 37.5177C83.037 37.5177 83.455 37.2037 83.872 36.6797C83.768 35.8937 83.82 35.1097 83.924 34.3747L83.976 33.4747L81.733 34.0507L81.734 34.0617Z" fill="black"/>
<path fill-rule="evenodd" clip-rule="evenodd" d="M81.84 30.3428C80.43 30.4478 79.283 32.1758 80.014 33.4858C81.004 35.2658 83.144 33.3288 84.501 33.4858C86.066 33.5378 87.318 35.1618 88.571 33.7998C89.981 32.2798 87.945 30.8138 86.431 30.1328L81.841 30.3328L81.84 30.3428Z" fill="#F6D2A2"/>
<path d="M87.474 34.5324C87.004 34.5324 86.534 34.3324 86.064 34.1124C85.594 33.8924 85.074 33.6924 84.499 33.6924H84.342C83.925 33.6924 83.455 33.8494 82.932 34.0594C82.358 34.2594 81.784 34.4264 81.262 34.4264C80.636 34.4264 80.166 34.1644 79.852 33.5884C79.487 32.9584 79.539 32.2264 79.904 31.5454C80.321 30.7594 81.052 30.2884 81.834 30.1834L86.53 29.9834C87.678 30.4534 88.982 31.3454 89.243 32.3834C89.347 32.9074 89.191 33.4314 88.773 33.9034C88.355 34.3754 87.938 34.5334 87.469 34.5334L87.474 34.5324ZM84.552 33.3804C85.126 33.3804 85.7 33.6424 86.222 33.8504C86.692 34.0504 87.109 34.2174 87.526 34.2174C87.891 34.2174 88.204 34.0604 88.516 33.7474C88.6766 33.5944 88.7983 33.4052 88.8708 33.1955C88.9434 32.9859 88.9647 32.762 88.933 32.5424C88.723 31.6424 87.473 30.8124 86.481 30.3944L81.941 30.5944C81.263 30.6464 80.637 31.1184 80.271 31.7464C79.958 32.3224 79.958 32.9514 80.219 33.4764C80.479 33.9464 80.793 34.1564 81.315 34.1564C81.785 34.1564 82.305 33.9564 82.828 33.7894C83.402 33.5894 83.871 33.4224 84.393 33.4224C84.393 33.3174 84.445 33.3174 84.55 33.3704L84.552 33.3804Z" fill="#231F20"/>
<path d="M81.683 30.2993C81.579 27.8373 86.273 27.5233 86.796 29.5663C87.37 31.6613 81.892 32.1333 81.683 30.2993Z" fill="black"/>
</svg>
