<svg width="925" height="1663" viewBox="0 0 925 1663" fill="none" xmlns="http://www.w3.org/2000/svg">
<circle cx="592.905" cy="44.9051" r="32.241" transform="rotate(35.0154 592.905 44.9051)" fill="url(#paint0_linear_1_610)"/>
<circle cx="850.325" cy="505.327" r="15.6807" transform="rotate(35.0154 850.325 505.327)" fill="url(#paint1_linear_1_610)"/>
<circle cx="495.066" cy="604.066" r="14.4069" transform="rotate(35.0154 495.066 604.066)" fill="url(#paint2_linear_1_610)"/>
<circle cx="50.5192" cy="1076.52" r="35.5806" transform="rotate(35.0154 50.5192 1076.52)" fill="url(#paint3_linear_1_610)"/>
<circle cx="590.418" cy="1632.42" r="21.8395" transform="rotate(35.0154 590.418 1632.42)" fill="url(#paint4_linear_1_610)"/>
<circle cx="897.353" cy="1169.12" r="19.4734" transform="rotate(35.0154 897.353 1169.12)" fill="url(#paint5_linear_1_610)"/>
<defs>
<linearGradient id="paint0_linear_1_610" x1="625.146" y1="12.6641" x2="560.664" y2="77.1462" gradientUnits="userSpaceOnUse">
<stop stop-color="#FFEF5E"/>
<stop offset="1" stop-color="#F7936F"/>
</linearGradient>
<linearGradient id="paint1_linear_1_610" x1="866.006" y1="489.647" x2="834.644" y2="521.008" gradientUnits="userSpaceOnUse">
<stop stop-color="#F76680"/>
<stop offset="1" stop-color="#57007B"/>
</linearGradient>
<linearGradient id="paint2_linear_1_610" x1="509.473" y1="589.659" x2="480.659" y2="618.473" gradientUnits="userSpaceOnUse">
<stop stop-color="#F76680"/>
<stop offset="1" stop-color="#57007B"/>
</linearGradient>
<linearGradient id="paint3_linear_1_610" x1="86.0998" y1="1040.94" x2="14.9386" y2="1112.1" gradientUnits="userSpaceOnUse">
<stop stop-color="#FFEF5E"/>
<stop offset="1" stop-color="#F7936F"/>
</linearGradient>
<linearGradient id="paint4_linear_1_610" x1="612.257" y1="1610.58" x2="568.578" y2="1654.26" gradientUnits="userSpaceOnUse">
<stop stop-color="#FFEF5E"/>
<stop offset="1" stop-color="#F7936F"/>
</linearGradient>
<linearGradient id="paint5_linear_1_610" x1="916.826" y1="1149.65" x2="877.88" y2="1188.6" gradientUnits="userSpaceOnUse">
<stop stop-color="#F76680"/>
<stop offset="1" stop-color="#57007B"/>
</linearGradient>
</defs>
</svg>
