<svg width="779" height="766" viewBox="0 0 779 766" fill="none" xmlns="http://www.w3.org/2000/svg">
<path d="M495.28 725.594C478.587 747.592 447.222 751.892 425.224 735.199L96.3625 485.638C43.5686 445.575 33.2484 370.299 73.3117 317.505L259.657 71.9469C289.704 32.3514 346.161 24.6113 385.756 54.6588L738.516 322.355C760.513 339.048 764.814 370.413 748.121 392.41L495.28 725.594Z" fill="url(#paint0_linear_1_394)"/>
<path d="M575.692 566.5C575.692 641.888 513.355 704.5 434.596 704.5C355.837 704.5 293.5 641.888 293.5 566.5C293.5 491.112 355.837 428.5 434.596 428.5C513.355 428.5 575.692 491.112 575.692 566.5Z" stroke="white" stroke-opacity="0.06" stroke-width="111"/>
<path d="M603.308 566.5C603.308 655.477 530.065 727.988 439.24 727.988C348.416 727.988 275.172 655.477 275.172 566.5C275.172 477.524 348.416 405.012 439.24 405.012C530.065 405.012 603.308 477.524 603.308 566.5Z" stroke="white" stroke-opacity="0.06" stroke-width="31"/>
<path d="M582.668 567.016C582.668 644.233 518.742 707.348 439.24 707.348C359.738 707.348 295.812 644.233 295.812 567.016C295.812 489.799 359.738 426.684 439.24 426.684C518.742 426.684 582.668 489.799 582.668 567.016Z" stroke="white" stroke-opacity="0.06" stroke-width="31"/>
<path d="M322.5 123.862C322.5 137.139 311.487 148.225 297.5 148.225C283.513 148.225 272.5 137.139 272.5 123.862C272.5 110.586 283.513 99.5 297.5 99.5C311.487 99.5 322.5 110.586 322.5 123.862Z" stroke="white" stroke-opacity="0.06" stroke-width="21"/>
<defs>
<linearGradient id="paint0_linear_1_394" x1="0.77065" y1="413.097" x2="760.697" y2="263.14" gradientUnits="userSpaceOnUse">
<stop stop-color="#F76680"/>
<stop offset="1" stop-color="#57007B"/>
</linearGradient>
</defs>
</svg>
