<svg width="33" height="35" viewBox="0 0 33 35" fill="none" xmlns="http://www.w3.org/2000/svg">
<path d="M4.05208 10.2761C5.26196 14.2889 9.38756 16.5273 13.2669 15.2758C17.1462 14.0243 26.3343 7.49078 25.1244 3.47803C23.9145 -0.534718 12.7648 -0.507129 8.88552 0.744365C5.00621 1.99586 2.84221 6.26337 4.05208 10.2761Z" fill="url(#paint0_radial_107_1592)"/>
<path d="M1.70772 32.2795C3.98467 34.6348 7.67595 34.6348 9.9529 32.2795C12.2299 29.9243 16.3523 21.8414 14.0757 19.4861C11.7987 17.1311 3.98467 21.3955 1.70772 23.7505C-0.569239 26.1058 -0.569239 29.9243 1.70772 32.2795Z" fill="url(#paint1_radial_107_1592)"/>
<path d="M23.4952 34.5948C27.4204 35.6827 31.455 33.2733 32.5068 29.2131C33.5583 25.1528 33.1336 13.6281 29.2084 12.5401C25.2832 11.4522 19.3445 21.2132 18.2926 25.2734C17.2408 29.3334 19.57 33.5068 23.4952 34.5948Z" fill="url(#paint2_linear_107_1592)"/>
<defs>
<radialGradient id="paint0_radial_107_1592" cx="0" cy="0" r="1" gradientUnits="userSpaceOnUse" gradientTransform="translate(25.2254 3.28868) rotate(162.202) scale(31.1252 45.5869)">
<stop stop-color="#3E96F7"/>
<stop offset="0.48585" stop-color="#9301FF"/>
<stop offset="0.71428" stop-color="#CC01FE"/>
</radialGradient>
<radialGradient id="paint1_radial_107_1592" cx="0" cy="0" r="1" gradientUnits="userSpaceOnUse" gradientTransform="translate(15.9794 18.6043) rotate(146.029) scale(26.8628 63.0958)">
<stop offset="0.0977501" stop-color="#D730A2"/>
<stop offset="0.467786" stop-color="#FD291C"/>
<stop offset="0.700031" stop-color="#FCA13D"/>
</radialGradient>
<linearGradient id="paint2_linear_107_1592" x1="27.4249" y1="13.3186" x2="27.4249" y2="35.0942" gradientUnits="userSpaceOnUse">
<stop stop-color="#9F58EE"/>
<stop offset="1" stop-color="#56F77C"/>
</linearGradient>
</defs>
</svg>
