<svg width="166" height="94" viewBox="0 0 166 94" fill="none" xmlns="http://www.w3.org/2000/svg">
<path d="M49.047 61.6519C49.047 61.6519 46.987 62.8469 50.513 63.2519C54.785 63.7379 56.968 63.6679 61.675 62.7799C61.675 62.7799 62.913 63.5539 64.641 64.2249C54.088 68.7369 40.758 63.9649 49.047 61.6529V61.6519ZM47.757 55.7629C47.757 55.7629 45.457 57.4689 48.975 57.8329C53.538 58.3029 57.142 58.3409 63.377 57.1329C63.377 57.1329 64.24 58.0049 65.597 58.4829C52.837 62.2049 38.627 58.7769 47.757 55.7529" fill="#5382A1"/>
<path d="M58.63 45.775C61.23 48.762 57.947 51.45 57.947 51.45C57.947 51.45 64.549 48.05 61.517 43.79C58.685 39.82 56.513 37.846 68.27 31.043C68.27 31.043 49.816 35.641 58.63 45.775Z" fill="#E76F00"/>
<path d="M72.586 66.0085C72.586 66.0085 74.11 67.2615 70.906 68.2315C64.816 70.0715 45.554 70.6285 40.203 68.3045C38.28 67.4695 41.887 66.3105 43.021 66.0675C44.204 65.8115 44.881 65.8595 44.881 65.8595C42.741 64.3565 31.055 68.8115 38.945 70.0875C60.461 73.5675 78.167 68.5195 72.585 66.0075L72.586 66.0085ZM50.038 49.6625C50.038 49.6625 40.241 51.9845 46.568 52.8275C49.24 53.1845 54.566 53.1035 59.528 52.6875C63.583 52.3475 67.654 51.6205 67.654 51.6205C67.654 51.6205 66.224 52.2305 65.19 52.9355C55.24 55.5455 36.02 54.3315 41.554 51.6615C46.234 49.4045 50.038 49.6615 50.038 49.6615V49.6625ZM67.613 59.4635C77.727 54.2195 73.051 49.1805 69.787 49.8595C68.987 50.0255 68.63 50.1595 68.63 50.1595C68.63 50.1595 68.927 49.6955 69.494 49.4945C75.951 47.2295 80.917 56.1745 67.41 59.7175C67.41 59.7175 67.567 59.5775 67.613 59.4535" fill="#5382A1"/>
<path d="M61.516 20.0576C61.516 20.0576 67.116 25.6576 56.204 34.2446C47.452 41.1406 54.208 45.0716 56.2 49.5646C51.092 44.9646 47.343 40.9176 49.858 37.1506C53.548 31.6206 63.776 28.9386 61.516 20.0586" fill="#E76F00"/>
<path d="M51.032 73.6731C60.74 74.2931 75.647 73.3291 76 68.7461C76 68.7461 75.32 70.4831 67.977 71.8631C59.691 73.4191 49.472 73.2371 43.41 72.2401C43.41 72.2401 44.65 73.2641 51.03 73.6731" fill="#5382A1"/>
<path d="M104.385 55.762C103.468 56.549 102.499 56.992 101.63 56.992C100.39 56.992 99.72 56.256 99.72 55.074C99.72 53.796 100.438 52.862 103.32 52.862H104.386V55.762H104.385ZM106.915 58.588V49.84C106.915 47.605 105.627 46.14 102.522 46.14C100.709 46.14 99.122 46.583 97.832 47.148L98.204 48.698C99.22 48.328 100.534 47.985 101.826 47.985C103.616 47.985 104.384 48.698 104.384 50.171V51.277H103.491C99.145 51.277 97.185 52.947 97.185 55.453C97.185 57.616 98.477 58.845 100.909 58.845C102.472 58.845 103.639 58.205 104.731 57.271L104.929 58.599H106.914L106.915 58.588ZM115.361 58.588H112.205L108.405 46.352H111.161L113.518 53.87L114.042 56.13C115.234 52.86 116.078 49.544 116.5 46.35H119.18C118.46 50.38 117.17 54.802 115.358 58.586L115.361 58.588ZM127.469 55.762C126.549 56.549 125.579 56.992 124.709 56.992C123.469 56.992 122.799 56.256 122.799 55.074C122.799 53.796 123.519 52.862 126.399 52.862H127.467V55.762H127.469ZM129.999 58.588V49.84C129.999 47.605 128.709 46.14 125.607 46.14C123.793 46.14 122.205 46.583 120.915 47.148L121.287 48.698C122.303 48.328 123.621 47.985 124.911 47.985C126.698 47.985 127.469 48.698 127.469 50.171V51.277H126.575C122.228 51.277 120.269 52.947 120.269 55.453C120.269 57.616 121.559 58.845 123.992 58.845C125.556 58.845 126.722 58.205 127.816 57.271L128.016 58.599H130L129.999 58.588ZM94.411 60.666C93.7 61.71 92.525 62.533 91.25 63L90 61.545C90.97 61.052 91.804 60.245 92.19 59.515C92.525 58.855 92.663 58.015 92.663 55.971V42H95.353V55.778C95.353 58.496 95.133 59.595 94.413 60.666H94.411Z" fill="#E76F00"/>
</svg>
