<svg width="166" height="94" viewBox="0 0 166 94" fill="none" xmlns="http://www.w3.org/2000/svg">
<path d="M84 79C101.673 79 116 64.6731 116 47C116 29.3269 101.673 15 84 15C66.3269 15 52 29.3269 52 47C52 64.6731 66.3269 79 84 79Z" fill="#5C2D91"/>
<path opacity="0.1" d="M61.82 24C57.471 27.8756 54.2624 32.8647 52.5401 38.4296C50.8179 43.9944 50.6474 49.9239 52.0469 55.5785C53.4464 61.2332 56.363 66.3985 60.482 70.5176C64.6011 74.6367 69.7664 77.5534 75.421 78.953C81.0757 80.3526 87.0052 80.1822 92.5702 78.4599C98.1351 76.7377 103.124 73.5291 107 69.18L61.82 24Z" fill="white"/>
<path d="M59.4 52.2495C59.2133 52.2525 59.0281 52.2167 58.856 52.1444C58.6838 52.0721 58.5286 51.9649 58.4 51.8295C58.2679 51.699 58.1635 51.5432 58.093 51.3713C58.0226 51.1995 57.9875 51.0152 57.99 50.8295C57.9887 50.644 58.0242 50.46 58.0946 50.2884C58.165 50.1167 58.2688 49.9607 58.4 49.8295C58.5273 49.6919 58.6821 49.5825 58.8544 49.5084C59.0266 49.4343 59.2125 49.3973 59.4 49.3995C59.5872 49.3991 59.7725 49.437 59.9445 49.5109C60.1165 49.5849 60.2715 49.6933 60.4 49.8295C60.5334 49.9596 60.6394 50.1151 60.7116 50.2869C60.7837 50.4587 60.8206 50.6432 60.82 50.8295C60.8217 51.016 60.7854 51.2009 60.7132 51.3729C60.6409 51.5448 60.5344 51.7002 60.4 51.8295C60.2703 51.9635 60.1149 52.0697 59.943 52.1419C59.7711 52.2141 59.5864 52.2507 59.4 52.2495ZM79.27 51.9995H76.65L67.28 37.4595C67.0466 37.1013 66.8521 36.7191 66.7 36.3195H66.62C66.709 37.1497 66.7424 37.9849 66.72 38.8195V51.9995H64.6V33.7695H67.37L76.49 48.0495L77.23 49.2695H77.28C77.1745 48.3803 77.131 47.4848 77.15 46.5895V33.7695H79.28V51.9995H79.27ZM93.7 51.9995H84V33.7695H93.24V35.6995H86.18V41.7595H92.76V43.6795H86.18V49.9995H93.7V51.9995ZM108 35.6995H102.7V51.9995H100.57V35.6995H95.33V33.7695H108V35.6995Z" fill="white"/>
<path d="M78.12 64.4002C77.398 64.7498 76.6017 64.918 75.8 64.8902C75.2673 64.9142 74.7356 64.824 74.2406 64.6256C73.7456 64.4273 73.2987 64.1254 72.93 63.7402C72.1952 62.9177 71.8081 61.8423 71.85 60.7402C71.8231 60.1435 71.9163 59.5474 72.1242 58.9874C72.332 58.4274 72.6503 57.9148 73.06 57.4802C73.4593 57.0711 73.9393 56.7497 74.4695 56.5362C74.9998 56.3227 75.5687 56.2219 76.14 56.2402C76.8237 56.2168 77.5048 56.336 78.14 56.5902V57.5902C77.5285 57.2516 76.8389 57.0792 76.14 57.0902C75.6994 57.0778 75.2613 57.1607 74.8557 57.3333C74.4501 57.5059 74.0866 57.7641 73.79 58.0902C73.1663 58.8007 72.8436 59.7259 72.89 60.6702C72.8433 61.5646 73.1443 62.4425 73.73 63.1202C74.0109 63.4223 74.3539 63.66 74.7354 63.8171C75.1168 63.9742 75.5278 64.0469 75.94 64.0302C76.7078 64.0503 77.4661 63.8564 78.13 63.4702L78.12 64.4002ZM82.2 64.9002C81.8019 64.9131 81.4057 64.8403 81.0382 64.6867C80.6708 64.5332 80.3405 64.3024 80.07 64.0102C79.5232 63.3999 79.2393 62.5986 79.28 61.7802C79.255 61.3514 79.3155 60.922 79.458 60.5168C79.6005 60.1117 79.8221 59.7389 80.11 59.4202C80.4038 59.1335 80.7532 58.9101 81.1368 58.7639C81.5204 58.6177 81.9299 58.5518 82.34 58.5702C82.7276 58.5495 83.1151 58.613 83.4759 58.7563C83.8366 58.8996 84.1621 59.1192 84.43 59.4002C84.9615 60.0407 85.2296 60.8593 85.18 61.6902C85.2219 62.5334 84.9311 63.3593 84.37 63.9902C84.0943 64.2881 83.758 64.5235 83.3837 64.6805C83.0093 64.8375 82.6057 64.9124 82.2 64.9002ZM82.27 59.4302C81.9949 59.4186 81.7208 59.4692 81.468 59.5783C81.2152 59.6874 80.9903 59.8521 80.81 60.0602C80.4252 60.5556 80.2333 61.1739 80.27 61.8002C80.2351 62.4078 80.4276 63.0067 80.81 63.4802C80.9921 63.6853 81.2177 63.8474 81.4702 63.9546C81.7227 64.0618 81.9959 64.1116 82.27 64.1002C82.5383 64.116 82.8068 64.0702 83.0546 63.9662C83.3025 63.8622 83.5233 63.7028 83.7 63.5002C84.0635 63.0034 84.2406 62.3944 84.2 61.7802C84.2395 61.1629 84.0627 60.5512 83.7 60.0502C83.5257 59.8434 83.3059 59.6798 83.0578 59.5722C82.8097 59.4646 82.54 59.416 82.27 59.4302ZM89.87 59.7302C89.654 59.5887 89.3976 59.5219 89.14 59.5402C88.9385 59.5475 88.742 59.6042 88.5676 59.7054C88.3932 59.8065 88.2464 59.949 88.14 60.1202C87.8424 60.5914 87.699 61.1437 87.73 61.7002V64.7602H86.73V58.7602H87.73V60.0002C87.8399 59.6134 88.0586 59.2663 88.36 59.0002C88.6208 58.7738 88.9547 58.6495 89.3 58.6502C89.4933 58.6415 89.6865 58.6686 89.87 58.7302V59.7302ZM95.72 62.0002H91.5C91.4716 62.5592 91.6535 63.1086 92.01 63.5402C92.1953 63.7251 92.4176 63.8687 92.6623 63.9618C92.907 64.0548 93.1686 64.0952 93.43 64.0802C94.1079 64.0734 94.7635 63.8373 95.29 63.4102V64.3102C94.6717 64.7177 93.9395 64.9174 93.2 64.8802C92.8268 64.899 92.4541 64.8353 92.1084 64.6935C91.7627 64.5518 91.4525 64.3355 91.2 64.0602C90.6794 63.4108 90.4192 62.5909 90.47 61.7602C90.434 60.9274 90.7165 60.1122 91.26 59.4802C91.5073 59.1945 91.8151 58.9673 92.1609 58.8151C92.5068 58.6629 92.8822 58.5895 93.26 58.6002C93.6011 58.5811 93.942 58.6395 94.2573 58.7712C94.5725 58.9028 94.8538 59.1042 95.08 59.3602C95.5404 59.9673 95.7675 60.7197 95.72 61.4802L95.73 62.0002H95.72ZM94.72 61.2002C94.7403 60.7368 94.5989 60.2808 94.32 59.9102C94.1831 59.7556 94.0131 59.6339 93.8226 59.5542C93.6322 59.4746 93.4261 59.439 93.22 59.4502C93.0048 59.4475 92.7914 59.4897 92.5934 59.5741C92.3954 59.6585 92.2171 59.7831 92.07 59.9402C91.7409 60.2884 91.5338 60.7341 91.48 61.2102H94.72V61.2002Z" fill="#F2F2F2"/>
</svg>
