<svg width="14" height="14" viewBox="0 0 14 14" fill="none" xmlns="http://www.w3.org/2000/svg">
<g clip-path="url(#clip0_102_1479)">
<path d="M13.619 10.2746L11.6652 8.32085C10.9675 7.62308 9.78126 7.90222 9.50215 8.80928C9.29282 9.4373 8.59506 9.78618 7.96707 9.6466C6.57154 9.29772 4.68757 7.48353 4.33869 6.01822C4.12936 5.39021 4.54802 4.69244 5.17601 4.48314C6.0831 4.20403 6.36221 3.01783 5.66445 2.32007L3.7107 0.366327C3.15249 -0.122109 2.31518 -0.122109 1.82674 0.366327L0.500987 1.69208C-0.824766 3.08761 0.64054 6.78576 3.92003 10.0653C7.19953 13.3448 10.8977 14.8799 12.2932 13.4843L13.619 12.1586C14.1074 11.6003 14.1074 10.763 13.619 10.2746Z" fill="white"/>
</g>
<defs>
<clipPath id="clip0_102_1479">
<rect width="14" height="14" fill="white"/>
</clipPath>
</defs>
</svg>
