<svg width="166" height="94" viewBox="0 0 166 94" fill="none" xmlns="http://www.w3.org/2000/svg">
<mask id="mask0_1_783" style="mask-type:alpha" maskUnits="userSpaceOnUse" x="35" y="21" width="96" height="52">
<path d="M35.0902 46.9719C35.0902 60.8199 56.5402 72.0469 83.0142 72.0469C109.488 72.0469 130.948 60.8199 130.948 46.9709C130.948 33.1219 109.488 21.8949 83.0142 21.8949C56.5402 21.8949 35.0902 33.1239 35.0902 46.9719Z" fill="white"/>
</mask>
<g mask="url(#mask0_1_783)">
<path d="M35.0902 46.9719C35.0902 60.8199 56.5402 72.0469 83.0142 72.0469C109.488 72.0469 130.948 60.8199 130.948 46.9709C130.948 33.1219 109.488 21.8949 83.0142 21.8949C56.5402 21.8949 35.0902 33.1239 35.0902 46.9719Z" fill="url(#paint0_radial_1_783)"/>
</g>
<mask id="mask1_1_783" style="mask-type:alpha" maskUnits="userSpaceOnUse" x="33" y="19" width="100" height="56">
<path d="M33.0832 19.0413H132.943V74.9033H33.0832V19.0413Z" fill="white"/>
</mask>
<g mask="url(#mask1_1_783)">
<path d="M83.0132 70.1865C108.451 70.1865 129.073 59.7935 129.073 46.9725C129.073 34.1515 108.453 23.7585 83.0132 23.7585C57.5732 23.7585 36.9532 34.1535 36.9532 46.9735C36.9532 59.7935 57.5752 70.1865 83.0132 70.1865Z" fill="#777BB3"/>
</g>
<mask id="mask2_1_783" style="mask-type:alpha" maskUnits="userSpaceOnUse" x="33" y="19" width="100" height="56">
<path d="M33.0832 19.0413H132.943V74.9033H33.0832V19.0413Z" fill="white"/>
</mask>
<g mask="url(#mask2_1_783)">
<path d="M61.1232 49.8503C63.2152 49.8503 64.7762 49.4663 65.7632 48.7103C66.7402 47.9623 67.4162 46.6653 67.7692 44.8563C68.0992 43.1663 67.9732 41.9863 67.3962 41.3483C66.8062 40.6983 65.5282 40.3683 63.6002 40.3683H60.2572L58.4042 49.8513H61.1212L61.1232 49.8503ZM50.1902 61.5303C50.1136 61.5304 50.038 61.5136 49.9687 61.4811C49.8994 61.4486 49.8381 61.4012 49.7892 61.3423C49.6892 61.2223 49.6492 61.0663 49.6792 60.9143L54.5892 35.7843C54.6128 35.6662 54.6767 35.56 54.7699 35.4838C54.8631 35.4075 54.9798 35.366 55.1002 35.3663H65.6852C69.0122 35.3663 71.4882 36.2643 73.0452 38.0363C74.6102 39.8163 75.0932 42.3063 74.4812 45.4363C74.2473 46.6697 73.8175 47.8577 73.2082 48.9553C72.6122 50.0153 71.8242 50.9983 70.8662 51.8753C69.7192 52.9433 68.4212 53.7173 67.0112 54.1723C65.6242 54.6223 63.8412 54.8493 61.7152 54.8493H57.4292L56.2052 61.1113C56.1818 61.2293 56.1182 61.3357 56.0252 61.4121C55.9322 61.4885 55.8156 61.5303 55.6952 61.5303H50.1902Z" fill="black"/>
<path d="M60.6882 40.8829H63.6022C65.9292 40.8829 66.7372 41.3909 67.0022 41.6829C67.4582 42.1849 67.5442 43.2449 67.2522 44.7459C66.9222 46.4259 66.3122 47.6189 65.4392 48.2879C64.5442 48.9729 63.0892 49.3199 61.1152 49.3199H59.0292L60.6792 40.8719L60.6882 40.8829ZM65.6862 34.8489H55.1012C54.8605 34.8486 54.6271 34.9319 54.4409 35.0846C54.2547 35.2372 54.1272 35.4497 54.0802 35.6859L49.1702 60.8159C49.1409 60.9656 49.1453 61.12 49.183 61.2679C49.2207 61.4158 49.2908 61.5534 49.3882 61.6709C49.4861 61.7888 49.6088 61.8837 49.7476 61.9487C49.8865 62.0137 50.0379 62.0472 50.1912 62.0469H55.6962C55.937 62.0471 56.1704 61.9638 56.3566 61.8112C56.5428 61.6585 56.6702 61.446 56.7172 61.2099L57.8592 55.3659H61.7162C63.8962 55.3659 65.7342 55.1289 67.1742 54.6629C68.6542 54.1849 70.0172 53.3629 71.2242 52.2529C72.2212 51.3409 73.0442 50.3159 73.6642 49.2089C74.2842 48.1019 74.7342 46.8649 74.9942 45.5359C75.6382 42.2419 75.1142 39.6059 73.4392 37.6959C71.7792 35.8059 69.1722 34.8489 65.6892 34.8489H65.6862ZM57.7762 50.3659H61.1242C63.3442 50.3659 64.9962 49.9499 66.0842 49.1189C67.1722 48.2879 67.9042 46.8989 68.2842 44.9539C68.6482 43.0859 68.4822 41.7679 67.7862 41.0009C67.0902 40.2339 65.6962 39.8489 63.6042 39.8489H59.8342L57.7792 50.3659H57.7762ZM65.6862 35.8829C68.8702 35.8829 71.1932 36.7129 72.6532 38.3759C74.1132 40.0389 74.5532 42.3579 73.9702 45.3359C73.7302 46.5629 73.3252 47.6859 72.7542 48.7009C72.1832 49.7159 71.4362 50.6479 70.5142 51.5009C69.4142 52.5239 68.1942 53.2529 66.8502 53.6869C65.5062 54.1209 63.7952 54.3389 61.7152 54.3389H57.0002L55.6932 61.0029H50.1882L55.0982 35.8729H65.6832L65.6862 35.8829Z" fill="white"/>
<path d="M87.1032 54.8496C87.0266 54.8497 86.951 54.8329 86.8817 54.8004C86.8124 54.7679 86.7511 54.7205 86.7022 54.6616C86.6022 54.5416 86.5622 54.3856 86.5922 54.2336L88.7652 43.1136C88.9722 42.0566 88.9212 41.2976 88.6222 40.9766C88.4392 40.7806 87.8892 40.4516 86.2622 40.4516H82.3262L79.5962 54.4296C79.5728 54.5479 79.509 54.6543 79.4158 54.7307C79.3226 54.8071 79.2057 54.8488 79.0852 54.8486H73.6252C73.5486 54.8487 73.473 54.8319 73.4037 54.7994C73.3344 54.7669 73.2731 54.7195 73.2242 54.6606C73.1242 54.5406 73.0842 54.3846 73.1142 54.2326L78.0242 29.1026C78.0478 28.9846 78.1117 28.8783 78.2049 28.8021C78.2981 28.7259 78.4148 28.6844 78.5352 28.6846H83.9952C84.0718 28.6845 84.1474 28.7013 84.2167 28.7338C84.286 28.7663 84.3473 28.8137 84.3962 28.8726C84.4962 28.9926 84.5362 29.1486 84.5062 29.3006L83.3212 35.3656H87.5552C90.7812 35.3656 92.9682 35.9316 94.2422 37.0956C95.5422 38.2826 95.9462 40.1806 95.4462 42.7356L93.1612 54.4296C93.1378 54.5479 93.074 54.6543 92.9808 54.7307C92.8876 54.8071 92.7707 54.8488 92.6502 54.8486H87.1032V54.8496Z" fill="black"/>
<path d="M83.9952 28.1692H78.5352C78.2944 28.1689 78.0611 28.2523 77.8749 28.4049C77.6887 28.5575 77.5612 28.7701 77.5142 29.0062L72.6042 54.1362C72.5749 54.2859 72.5793 54.4403 72.617 54.5882C72.6547 54.7361 72.7248 54.8737 72.8222 54.9912C72.9201 55.1092 73.0428 55.204 73.1816 55.269C73.3204 55.334 73.4719 55.3676 73.6252 55.3672H79.0832C79.324 55.3674 79.5574 55.2841 79.7435 55.1315C79.9297 54.9788 80.0572 54.7663 80.1042 54.5302L82.7542 40.9702H86.2612C87.8842 40.9702 88.2252 41.3152 88.2392 41.3302C88.3372 41.4352 88.4672 41.9232 88.2532 43.0162L86.0802 54.1362C86.0509 54.2859 86.0553 54.4403 86.093 54.5882C86.1307 54.7361 86.2008 54.8737 86.2982 54.9912C86.3961 55.1092 86.5188 55.204 86.6576 55.269C86.7964 55.334 86.9479 55.3676 87.1012 55.3672H92.6492C92.89 55.3674 93.1234 55.2841 93.3095 55.1315C93.4957 54.9788 93.6232 54.7663 93.6702 54.5302L95.9552 42.8362C96.4912 40.0912 96.0322 38.0322 94.5922 36.7162C93.2182 35.4612 90.9152 34.8502 87.5522 34.8502H83.9532L85.0182 29.4002C85.0475 29.2504 85.0431 29.096 85.0054 28.9482C84.9677 28.8003 84.8976 28.6626 84.8002 28.5452C84.6022 28.3072 84.3082 28.1682 83.9972 28.1682L83.9952 28.1692ZM83.9972 29.2022L82.6912 35.8822H87.5562C90.6162 35.8822 92.7292 36.4122 93.8912 37.4752C95.0532 38.5382 95.3912 40.2582 94.9372 42.6372L92.6502 54.3332H87.1032L89.2762 43.2132C89.5232 41.9482 89.4322 41.0852 89.0032 40.6252C88.5742 40.1652 87.6602 39.9252 86.2632 39.9252H81.8982L79.0832 54.3332H73.6232L78.5332 29.2032H83.9932" fill="white"/>
<path d="M104.087 49.8502C106.179 49.8502 107.74 49.4662 108.727 48.7102C109.704 47.9622 110.38 46.6652 110.734 44.8562C111.064 43.1662 110.938 41.9862 110.36 41.3482C109.77 40.6982 108.492 40.3682 106.564 40.3682H103.223L101.37 49.8512H104.087V49.8502ZM93.1532 61.5312C93.0767 61.5313 93.001 61.5145 92.9317 61.4821C92.8624 61.4496 92.8011 61.4021 92.7522 61.3432C92.6522 61.2232 92.6122 61.0672 92.6422 60.9152L97.5522 35.7852C97.5758 35.6672 97.6397 35.561 97.7329 35.4847C97.8261 35.4085 97.9428 35.367 98.0632 35.3672H108.648C111.975 35.3672 114.451 36.2652 116.008 38.0372C117.573 39.8172 118.056 42.3072 117.444 45.4372C117.194 46.7122 116.767 47.8972 116.171 48.9572C115.575 50.0172 114.787 51.0002 113.829 51.8772C112.682 52.9452 111.384 53.7192 109.974 54.1742C108.587 54.6242 106.804 54.8512 104.678 54.8512H100.393L99.1702 61.1132C99.1468 61.2315 99.083 61.3379 98.9898 61.4143C98.8966 61.4908 98.7798 61.5324 98.6592 61.5322H93.1532V61.5312Z" fill="black"/>
<path d="M103.653 40.8829H106.567C108.894 40.8829 109.702 41.3909 109.967 41.6829C110.423 42.1849 110.509 43.2449 110.217 44.7459C109.887 46.4259 109.277 47.6189 108.404 48.2879C107.509 48.9729 106.054 49.3199 104.08 49.3199H101.994L103.644 40.8719L103.653 40.8829ZM108.651 34.8489H98.0652C97.8244 34.8486 97.5911 34.9319 97.4049 35.0846C97.2187 35.2372 97.0912 35.4497 97.0442 35.6859L92.1342 60.8159C92.1049 60.9656 92.1093 61.12 92.147 61.2679C92.1847 61.4158 92.2548 61.5534 92.3522 61.6709C92.4501 61.7888 92.5728 61.8837 92.7116 61.9487C92.8504 62.0137 93.0019 62.0472 93.1552 62.0469H98.6602C98.901 62.0471 99.1344 61.9638 99.3205 61.8112C99.5067 61.6585 99.6342 61.446 99.6812 61.2099L100.823 55.3659H104.68C106.86 55.3659 108.698 55.1289 110.138 54.6629C111.618 54.1849 112.981 53.3629 114.188 52.2529C115.159 51.3744 115.983 50.3469 116.629 49.2089C117.252 48.1009 117.699 46.8649 117.959 45.5359C118.603 42.2419 118.079 39.6039 116.404 37.6959C114.744 35.8059 112.137 34.8489 108.654 34.8489H108.651ZM100.741 50.3659H104.089C106.309 50.3659 107.961 49.9499 109.049 49.1189C110.137 48.2879 110.869 46.8989 111.249 44.9539C111.613 43.0859 111.449 41.7679 110.751 41.0009C110.053 40.2339 108.661 39.8489 106.569 39.8489H102.799L100.744 50.3659H100.741ZM108.651 35.8829C111.835 35.8829 114.158 36.7129 115.618 38.3759C117.078 40.0389 117.518 42.3579 116.935 45.3359C116.695 46.5629 116.29 47.6859 115.719 48.7009C115.148 49.7159 114.401 50.6479 113.479 51.5009C112.379 52.5239 111.159 53.2529 109.815 53.6869C108.471 54.1209 106.76 54.3389 104.68 54.3389H99.9632L98.6582 61.0189H93.1532L98.0632 35.8889H108.648L108.651 35.8829Z" fill="white"/>
</g>
<defs>
<radialGradient id="paint0_radial_1_783" cx="0" cy="0" r="1" gradientUnits="userSpaceOnUse" gradientTransform="translate(50.2398 30.7108) scale(62.9376 62.9442)">
<stop stop-color="#AEB2D5"/>
<stop offset="0.3" stop-color="#AEB2D5"/>
<stop offset="0.75" stop-color="#484C89"/>
<stop offset="1" stop-color="#484C89"/>
</radialGradient>
</defs>
</svg>
