<svg width="167" height="94" viewBox="0 0 167 94" fill="none" xmlns="http://www.w3.org/2000/svg">
<path fill-rule="evenodd" clip-rule="evenodd" d="M70.26 47.18C70.26 49.158 69.786 50.8 68.832 52.105C67.768 53.583 66.294 54.345 64.409 54.385C62.989 54.429 61.525 53.985 60.009 53.082V61.528L57.573 60.678V41.93C57.973 41.45 58.487 41.03 59.111 40.69C60.561 39.864 62.323 39.44 64.397 39.418L64.432 39.452C66.327 39.428 67.788 40.189 68.814 41.732C69.771 43.147 70.251 44.96 70.251 47.178L70.26 47.18ZM67.449 47.016C67.449 43.123 66.314 41.124 64.043 41.016C63.139 40.974 62.257 41.116 61.399 41.441C60.714 41.681 60.253 41.918 59.999 42.158V51.45C61.452 52.35 62.742 52.755 63.867 52.69C66.247 52.536 67.439 50.647 67.439 47.017L67.449 47.016ZM85.139 52.722C85.139 55.375 84.867 57.222 84.323 58.222C83.779 59.222 82.737 60.059 81.203 60.666C79.958 61.146 78.603 61.406 77.167 61.45L76.764 59.95C78.234 59.755 79.267 59.55 79.867 59.363C81.047 58.963 81.867 58.363 82.303 57.57C82.66 56.916 82.836 55.668 82.836 53.82V53.2C81.188 53.9356 79.4027 54.3132 77.598 54.308C76.398 54.308 75.34 53.94 74.428 53.2C73.404 52.395 72.893 51.373 72.893 50.136V40.226L75.329 39.41V49.388C75.329 50.454 75.681 51.275 76.385 51.85C77.089 52.425 78 52.702 79.117 52.68C80.234 52.658 81.431 52.234 82.702 51.408V39.78H85.138V52.723L85.139 52.722ZM94.651 54.254L93.848 54.288C92.47 54.288 91.396 53.968 90.628 53.324C89.86 52.68 89.48 51.792 89.48 50.658V41.278H87.81V39.78H89.48V35.8L91.914 34.953V39.78H94.651V41.278H91.914V50.594C91.914 51.488 92.159 52.121 92.65 52.491C93.07 52.796 93.75 52.971 94.652 53.015V54.255L94.651 54.254ZM109.403 54.06H106.967V44.867C106.967 43.932 106.743 43.127 106.297 42.454C106.069 42.0937 105.752 41.7991 105.375 41.5992C104.999 41.3993 104.577 41.301 104.151 41.314C103.034 41.314 101.637 41.89 99.951 43.041V54.061H97.515V32.084L99.951 31.334V41.334C101.519 40.224 103.219 39.67 105.066 39.67C106.366 39.67 107.401 40.095 108.201 40.942C109.001 41.789 109.403 42.844 109.403 44.105V54.049V54.06ZM125.021 46.658C125.021 48.788 124.464 50.558 123.351 51.974C122.128 53.559 120.438 54.354 118.281 54.354C116.143 54.354 114.477 53.559 113.275 51.974C112.175 50.559 111.641 48.787 111.641 46.658C111.641 44.658 112.241 42.973 113.408 41.603C114.664 40.15 116.3 39.42 118.324 39.42C120.348 39.42 121.994 40.15 123.264 41.603C124.442 42.973 125.031 44.657 125.031 46.658H125.021ZM122.363 46.642C122.363 45.146 122.063 43.912 121.493 42.934C120.805 41.734 119.737 41.114 118.291 41.05C115.621 41.2 114.287 43.072 114.287 46.658C114.287 48.302 114.565 49.676 115.124 50.778C115.838 52.183 116.91 52.876 118.339 52.852C121.021 52.832 122.361 50.752 122.361 46.652L122.363 46.642ZM139.001 54.06H136.565V44.346C136.565 43.28 136.237 42.449 135.582 41.85C134.927 41.251 134.052 40.964 132.962 40.987C131.805 41.007 130.704 41.387 129.659 42.095V54.06H127.223V41.8C128.625 40.802 129.916 40.15 131.093 39.846C132.193 39.562 133.185 39.421 134.031 39.421C134.609 39.421 135.153 39.475 135.665 39.585C136.623 39.801 137.401 40.202 138 40.791C138.322 41.0908 138.577 41.4545 138.75 41.8589C138.922 42.2633 139.008 42.6994 139.002 43.139V54.059L139.001 54.06Z" fill="#646464"/>
<mask id="mask0_1_818" style="mask-type:alpha" maskUnits="userSpaceOnUse" x="18" y="32" width="24" height="23">
<path d="M33.52 32.1719C32.267 32.1779 31.07 32.2719 30.016 32.4639C26.913 32.9999 26.35 34.1219 26.35 36.1899V38.9219H33.683V39.8319H23.597C21.467 39.8319 19.6 41.0839 19.017 43.4659C18.678 44.8399 18.502 45.9519 18.5 47.0829V47.1209C18.502 48.2259 18.67 49.3509 19.016 50.7509C19.536 52.8729 20.782 54.3849 22.913 54.3849H25.433V51.1099C25.433 48.7439 27.527 46.6569 30.013 46.6569H37.337C39.377 46.6569 41.003 45.0169 41.003 43.0139V36.1899C41.003 34.2479 39.327 32.7879 37.337 32.4639C36.1111 32.2681 34.8715 32.1704 33.63 32.1719H33.516H33.52ZM28.178 35.7399C28.178 34.9839 28.794 34.3699 29.554 34.3699C30.314 34.3699 30.93 34.9839 30.93 35.7399C30.9279 36.1029 30.7818 36.4502 30.5238 36.7056C30.2658 36.9609 29.917 37.1035 29.554 37.1019C28.794 37.1019 28.178 36.4919 28.178 35.7399Z" fill="white"/>
</mask>
<g mask="url(#mask0_1_818)">
<path fill-rule="evenodd" clip-rule="evenodd" d="M33.52 32.1719C32.267 32.1779 31.07 32.2719 30.016 32.4639C26.913 32.9999 26.35 34.1219 26.35 36.1899V38.9219H33.683V39.8319H23.597C21.467 39.8319 19.6 41.0839 19.017 43.4659C18.678 44.8399 18.502 45.9519 18.5 47.0829V47.1209C18.502 48.2259 18.67 49.3509 19.016 50.7509C19.536 52.8729 20.782 54.3849 22.913 54.3849H25.433V51.1099C25.433 48.7439 27.527 46.6569 30.013 46.6569H37.337C39.377 46.6569 41.003 45.0169 41.003 43.0139V36.1899C41.003 34.2479 39.327 32.7879 37.337 32.4639C36.1111 32.2681 34.8715 32.1704 33.63 32.1719H33.516H33.52ZM28.178 35.7399C28.178 34.9839 28.794 34.3699 29.554 34.3699C30.314 34.3699 30.93 34.9839 30.93 35.7399C30.9279 36.1029 30.7818 36.4502 30.5238 36.7056C30.2658 36.9609 29.917 37.1035 29.554 37.1019C28.794 37.1019 28.178 36.4919 28.178 35.7399Z" fill="url(#paint0_linear_1_818)"/>
</g>
<mask id="mask1_1_818" style="mask-type:alpha" maskUnits="userSpaceOnUse" x="26" y="39" width="23" height="24">
<path d="M41.921 39.833V43.017C41.921 45.485 39.781 47.562 37.341 47.562H30.015C28.009 47.562 26.349 49.242 26.349 51.205V58.031C26.349 59.973 28.077 61.116 30.015 61.673C32.335 62.34 34.562 62.461 37.339 61.673C39.185 61.151 41.005 60.099 41.005 58.031V55.307H33.683V54.407H44.673C46.803 54.407 47.598 52.954 48.339 50.773C49.105 48.528 49.072 46.368 48.339 43.488C47.813 41.393 46.807 39.833 44.673 39.833H41.921ZM36.426 58.48C36.4281 58.117 36.5742 57.7697 36.8322 57.5143C37.0902 57.2589 37.439 57.1164 37.802 57.118C38.562 57.118 39.178 57.728 39.178 58.48C39.178 59.232 38.562 59.85 37.802 59.85C37.042 59.85 36.426 59.235 36.426 58.48Z" fill="white"/>
</mask>
<g mask="url(#mask1_1_818)">
<path fill-rule="evenodd" clip-rule="evenodd" d="M41.921 39.833V43.017C41.921 45.485 39.781 47.562 37.341 47.562H30.015C28.009 47.562 26.349 49.242 26.349 51.205V58.031C26.349 59.973 28.077 61.116 30.015 61.673C32.335 62.34 34.562 62.461 37.339 61.673C39.185 61.151 41.005 60.099 41.005 58.031V55.307H33.683V54.407H44.673C46.803 54.407 47.598 52.954 48.339 50.773C49.105 48.528 49.072 46.368 48.339 43.488C47.813 41.393 46.807 39.833 44.673 39.833H41.921ZM36.426 58.48C36.4281 58.117 36.5742 57.7697 36.8322 57.5143C37.0902 57.2589 37.439 57.1164 37.802 57.118C38.562 57.118 39.178 57.728 39.178 58.48C39.178 59.232 38.562 59.85 37.802 59.85C37.042 59.85 36.426 59.235 36.426 58.48Z" fill="url(#paint1_linear_1_818)"/>
</g>
<mask id="mask2_1_818" style="mask-type:alpha" maskUnits="userSpaceOnUse" x="142" y="34" width="7" height="4">
<path d="M142.732 34.7236H148.35V37.6536H142.732V34.7236Z" fill="white"/>
</mask>
<g mask="url(#mask2_1_818)">
<path fill-rule="evenodd" clip-rule="evenodd" d="M145.562 37.6546H145.927V35.2626L146.72 37.6546H147.126L147.95 35.2706V37.6546H148.348V34.7236H147.821L146.92 37.2346L146.15 34.7236H145.56V37.6536L145.562 37.6546ZM143.744 37.6546H144.171V35.0366H145.183V34.7236H142.732V35.0366H143.744V37.6566V37.6546Z" fill="#646464"/>
</g>
<defs>
<linearGradient id="paint0_linear_1_818" x1="17.7545" y1="33.2896" x2="34.3437" y2="47.3777" gradientUnits="userSpaceOnUse">
<stop stop-color="#599ED4"/>
<stop offset="1" stop-color="#2F6997"/>
</linearGradient>
<linearGradient id="paint1_linear_1_818" x1="41.0096" y1="55.8182" x2="35.0787" y2="47.5357" gradientUnits="userSpaceOnUse">
<stop stop-color="#FFD43B"/>
<stop offset="1" stop-color="#FFE872"/>
</linearGradient>
</defs>
</svg>
