<svg width="39" height="39" viewBox="0 0 39 39" fill="none" xmlns="http://www.w3.org/2000/svg">
<g clip-path="url(#clip0_1_445)">
<path d="M20.5784 38.5532C20.5788 38.5527 20.5794 38.5523 20.5798 38.5518L28.5017 30.5915C29.0951 29.9952 29.0929 29.0306 28.4965 28.437C27.9002 27.8435 26.9356 27.8458 26.3421 28.4421L21.0234 33.7866L21.0234 1.52344C21.0234 0.682043 20.3414 0 19.5 0C18.6586 0 17.9766 0.682043 17.9766 1.52344L17.9766 33.7866L12.6579 28.4422C12.0644 27.8458 11.0999 27.8436 10.5035 28.4371C9.907 29.0307 9.90494 29.9953 10.4983 30.5916L18.4202 38.5519C18.4207 38.5523 18.4212 38.5527 18.4216 38.5533C19.0172 39.1499 19.9848 39.148 20.5784 38.5532Z" fill="url(#paint0_linear_1_445)"/>
</g>
<defs>
<linearGradient id="paint0_linear_1_445" x1="28.9453" y1="39" x2="-1.65622" y2="24.1774" gradientUnits="userSpaceOnUse">
<stop stop-color="#F76680"/>
<stop offset="1" stop-color="#57007B"/>
</linearGradient>
<clipPath id="clip0_1_445">
<rect width="39" height="39" fill="white" transform="matrix(0 1 -1 0 39 0)"/>
</clipPath>
</defs>
</svg>
