<svg width="167" height="94" viewBox="0 0 167 94" fill="none" xmlns="http://www.w3.org/2000/svg">
<path d="M75.576 60.637C75.576 60.637 80.426 60.217 80.426 53.903C80.426 47.589 74.55 47 74.55 47H63.966V66.923H69.286V62.117L73.886 66.923H81.756L75.576 60.636V60.637ZM73.526 56.557H69.286V52.002H73.553C73.553 52.002 74.753 52.449 74.753 54.265C74.753 56.081 73.533 56.565 73.533 56.565L73.526 56.557ZM93.56 47.14H88.157C84.307 47.14 83.003 50.66 83.003 52.337V66.923H88.406V63.43H93.476V66.923H98.713V52.338C98.713 48.091 94.889 47.141 93.559 47.141L93.56 47.14ZM93.477 57.786H88.379V52.952C88.379 52.952 88.379 51.852 90.079 51.852H91.935C93.431 51.852 93.459 52.952 93.459 52.952V57.786H93.487H93.477ZM101.18 47.14H106.805V66.924H101.18V47.14ZM114.7 61.8V47.14H109.103V66.924H122.263V61.8H114.7ZM124.12 61.856V66.914H133.18C135.036 66.914 138.223 65.544 138.334 61.717V59.77C138.334 56.5 135.674 54.573 133.18 54.573H128.664V52.226H137.614V47.14H129.014C126.797 47.14 123.834 48.984 123.834 52.42V54.18C123.834 57.617 126.771 59.377 129.014 59.377C135.248 59.405 127.518 59.377 133.281 59.377V61.837L124.111 61.865L124.12 61.856ZM30.44 66.886H52.34C52.34 66.886 48.156 47.633 62.01 39.836C65.03 38.356 74.645 32.822 90.383 44.558C90.883 44.138 91.353 43.804 91.353 43.804C91.353 43.804 76.953 29.302 60.91 30.924C52.847 31.651 42.928 39.054 37.11 48.824C31.292 58.594 30.46 66.874 30.46 66.874L30.44 66.886ZM76.047 32.5L76.147 30.628C75.897 30.488 75.205 30.153 73.459 29.65L73.359 31.494C74.2656 31.8002 75.1621 32.1357 76.047 32.5ZM73.415 38.424L73.315 40.184C74.229 40.212 75.145 40.324 76.058 40.519L76.158 38.787C75.216 38.591 74.302 38.48 73.415 38.424ZM63.163 29.706H63.44L62.885 28C62.025 28 61.139 28.056 60.225 28.168L60.751 29.818C61.5518 29.7388 62.3563 29.7014 63.161 29.706H63.163ZM64.493 39.989L65.13 41.917C65.934 41.517 66.737 41.19 67.53 40.939L66.93 39.095C66.0989 39.3402 65.2846 39.6388 64.492 39.989H64.493ZM51.913 32.639L50.666 30.699C49.9345 31.0793 49.2139 31.4801 48.505 31.901L49.78 33.857C50.5 33.41 51.193 32.991 51.914 32.627L51.913 32.639ZM57.593 45.213L58.923 47.225C59.393 46.525 59.948 45.885 60.558 45.241L59.311 43.341C58.6878 43.9166 58.1132 44.5428 57.593 45.213ZM53.576 54.2L55.82 56C55.9319 54.897 56.1265 53.8039 56.402 52.73L54.407 51.137C54.047 52.171 53.807 53.205 53.577 54.211L53.576 54.2ZM41.44 40.938L39.473 39.206C38.753 39.906 38.06 40.603 37.423 41.302L39.557 43.146C40.139 42.392 40.777 41.646 41.441 40.939L41.44 40.938ZM33.072 53.438L29.886 52.264C29.36 53.466 28.778 54.864 28.501 55.617L31.687 56.791C32.047 55.841 32.629 54.471 33.072 53.438ZM53.16 61.318C53.1981 62.4971 53.3089 63.6726 53.492 64.838L56.817 66.04C56.567 64.94 56.317 63.72 56.152 62.407L53.16 61.307V61.318Z" fill="#CC0000"/>
</svg>
